<svg width="36" height="39" viewBox="0 0 36 39" fill="none" xmlns="http://www.w3.org/2000/svg">
<path d="M13.9979 8C10.1389 8 6.99988 11.142 6.99988 15.002V25.002C6.99988 28.861 10.1418 32 14.0018 32H24.0018C27.8608 32 30.9999 28.858 30.9999 24.998V14.998C30.9999 11.139 27.8579 8 23.9979 8H13.9979ZM25.9999 12C26.5519 12 26.9999 12.448 26.9999 13C26.9999 13.552 26.5519 14 25.9999 14C25.4479 14 24.9999 13.552 24.9999 13C24.9999 12.448 25.4479 12 25.9999 12ZM18.9999 14C22.3089 14 24.9999 16.691 24.9999 20C24.9999 23.309 22.3089 26 18.9999 26C15.6909 26 12.9999 23.309 12.9999 20C12.9999 16.691 15.6909 14 18.9999 14ZM18.9999 16C17.939 16 16.9216 16.4214 16.1715 17.1716C15.4213 17.9217 14.9999 18.9391 14.9999 20C14.9999 21.0609 15.4213 22.0783 16.1715 22.8284C16.9216 23.5786 17.939 24 18.9999 24C20.0607 24 21.0782 23.5786 21.8283 22.8284C22.5784 22.0783 22.9999 21.0609 22.9999 20C22.9999 18.9391 22.5784 17.9217 21.8283 17.1716C21.0782 16.4214 20.0607 16 18.9999 16V16Z" fill="white"/>
</svg>
