<svg width="24" height="24" viewBox="0 0 24 24" fill="none" xmlns="http://www.w3.org/2000/svg">
<path d="M23.9129 1.74788V21.4257C23.9129 21.8756 23.7342 22.3071 23.416 22.6253C23.0979 22.9434 22.6664 23.1221 22.2165 23.1221H2.53865C2.08875 23.1221 1.65727 22.9434 1.33914 22.6253C1.02101 22.3071 0.842285 21.8756 0.842285 21.4257L0.842285 1.74788C0.842285 1.29798 1.02101 0.866499 1.33914 0.548368C1.65727 0.230238 2.08875 0.0515137 2.53865 0.0515137L22.2165 0.0515137C22.6664 0.0515137 23.0979 0.230238 23.416 0.548368C23.7342 0.866499 23.9129 1.29798 23.9129 1.74788V1.74788ZM7.62775 8.87262H4.23502V19.7294H7.62775V8.87262ZM7.9331 5.14062C7.93489 4.88398 7.88611 4.62951 7.78955 4.39173C7.69299 4.15395 7.55054 3.93752 7.37033 3.75479C7.19013 3.57206 6.97569 3.42662 6.73928 3.32677C6.50286 3.22691 6.24909 3.17461 5.99246 3.17283H5.93139C5.4095 3.17283 4.90898 3.38015 4.53995 3.74918C4.17092 4.11821 3.9636 4.61873 3.9636 5.14062C3.9636 5.66251 4.17092 6.16302 4.53995 6.53205C4.90898 6.90108 5.4095 7.1084 5.93139 7.1084V7.1084C6.18804 7.11472 6.44342 7.0704 6.68293 6.97798C6.92245 6.88556 7.14141 6.74686 7.3273 6.56979C7.51319 6.39272 7.66238 6.18075 7.76632 5.94601C7.87027 5.71126 7.92694 5.45834 7.9331 5.20169V5.14062ZM20.5201 13.1339C20.5201 9.87009 18.4438 8.60121 16.381 8.60121C15.7056 8.56739 15.0332 8.71124 14.4307 9.01842C13.8283 9.3256 13.3169 9.78536 12.9476 10.3519H12.8526V8.87262H9.6634V19.7294H13.0561V13.9549C13.0071 13.3635 13.1934 12.7767 13.5745 12.3218C13.9557 11.867 14.5009 11.5809 15.0918 11.5257H15.2207C16.2996 11.5257 17.1003 12.2043 17.1003 13.9142V19.7294H20.493L20.5201 13.1339Z" fill="white"/>
</svg>
